<svg height="480pt" viewBox="0 -16 480.02124 480" width="480pt" xmlns="http://www.w3.org/2000/svg"><path d="m480.011719 184.015625c-.042969-10.136719-6.445313-19.152344-16-22.527344v-37.929687l10.808593-4.046875c3.042969-1.136719 5.09375-4 5.195313-7.246094s-1.765625-6.230469-4.734375-7.554687l-232-104c-2.082031-.933594-4.460938-.933594-6.542969 0l-232 104c-2.964843 1.324218-4.8359372 4.308593-4.73437475 7.554687.10156275 3.246094 2.15624975 6.109375 5.19921875 7.246094l58.808594 22.046875v130.457031c0 38.878906 157.984375 40 176 40s176-1.121094 176-40v-130.457031l32-12v31.929687c-8.929688 3.105469-15.179688 11.199219-15.921875 20.625-.746094 9.425781 4.15625 18.398438 12.488281 22.867188l-11.726563 23.457031c-.554687 1.113281-.84375 2.335938-.839843 3.578125v192c-.019531 3.046875 1.699219 5.835937 4.421875 7.199219l32 16c2.488281 1.242187 5.441406 1.105468 7.800781-.363282 2.363281-1.46875 3.792969-4.058593 3.777344-6.835937v-208c.011719-1.238281-.261719-2.464844-.800781-3.578125l-11.726563-23.457031c7.699219-4.167969 12.503906-12.210938 12.527344-20.964844zm-400.089844-47.488281c3.96875-8.800782 60.890625-24.511719 160.089844-24.511719s156.117187 15.710937 160 24l.054687 85.269531c-40.535156-20.527344-145.558594-21.269531-160.054687-21.269531-14.496094 0-119.480469.742187-160 21.253906zm320.160156 116.800781c-40.519531-20.570313-145.574219-21.3125-160.070312-21.3125-14.496094 0-119.449219.742187-160 21.246094v-12.800781c4.246093-8.832032 61.0625-24.445313 160-24.445313 99.144531 0 156 15.6875 160.0625 24.488281zm-160.070312 42.6875c-98.480469 0-155.199219-15.472656-159.839844-23.800781 5.117187-8.855469 61.742187-24.199219 159.839844-24.199219 98.480469 0 155.199219 15.472656 159.839843 23.796875-5.121093 8.859375-61.746093 24.203125-159.839843 24.203125zm160.0625-55.601563c-.042969-.128906-.066407-.265624-.0625-.398437h.0625zm11.9375-114.449218c-24.640625-29.03125-155.6875-29.949219-172-29.949219s-147.359375.917969-172 29.949219l-38.976563-14.613282 210.976563-94.539062 210.976562 94.539062zm44 50.050781c4.417969 0 8 3.582031 8 8s-3.582031 8-8 8-8-3.582031-8-8 3.582031-8 8-8zm8 251.054687-16-8v-185.167968l8-16 8 16zm0 0"/><path d="m96.011719 160.015625h16v16h-16zm0 0"/><path d="m128.011719 144.015625h16v16h-16zm0 0"/></svg>