<svg height="512pt" viewBox="0 0 512 512.00038" width="512pt" xmlns="http://www.w3.org/2000/svg"><path d="m512 130.285156c0-5.691406-3.21875-10.894531-8.3125-13.429687l-223.171875-111.121094c-15.351563-7.644531-33.679687-7.644531-49.03125 0l-223.171875 111.121094c-5.09375 2.535156-8.3125 7.738281-8.3125 13.429687v.03125 238.984375c0 13.367188 7.433594 25.375 19.398438 31.332031l212.085937 105.601563c7.578125 3.773437 16.054687 5.765625 24.515625 5.765625s16.9375-1.992188 24.515625-5.765625l212.082031-105.601563c11.96875-5.957031 19.402344-17.964843 19.402344-31.332031v-238.988281c0-.007812 0-.019531 0-.027344zm-267.144531-97.695312c6.980469-3.476563 15.308593-3.476563 22.289062 0l196.203125 97.695312-196.207031 97.691406c-6.976563 3.476563-15.304687 3.476563-22.285156 0l-196.203125-97.691406zm-212.085938 341.1875c-1.707031-.851563-2.769531-2.566406-2.769531-4.476563v-214.761719l6.4375 3.175782 195.046875 97.117187c2.996094 1.492188 6.105469 2.683594 9.285156 3.59375l.230469.113281v218.917969zm449.230469-4.476563c0 1.910157-1.0625 3.625-2.769531 4.476563l-208.230469 103.679687v-218.917969l.234375-.117187c3.179687-.90625 6.285156-2.097656 9.28125-3.589844l195.046875-97.117187 6.4375-3.171875zm0 0"/></svg>