<svg height="480pt" viewBox="0 -16 480 480" width="480pt" xmlns="http://www.w3.org/2000/svg"><path d="m104 383.964844c-13.253906 0-24-10.746094-24-24 0-4.417969-3.582031-8-8-8s-8 3.582031-8 8c0 13.253906-10.746094 24-24 24-4.417969 0-8 3.582031-8 8 0 4.417968 3.582031 8 8 8 13.253906 0 24 10.746094 24 24 0 4.417968 3.582031 8 8 8s8-3.582032 8-8c0-13.253906 10.746094-24 24-24 4.417969 0 8-3.582032 8-8 0-4.417969-3.582031-8-8-8zm-32 16.25c-2.332031-3.140625-5.109375-5.917969-8.246094-8.25 3.136719-2.328125 5.914063-5.109375 8.246094-8.246094 2.332031 3.136719 5.109375 5.917969 8.246094 8.246094-3.136719 2.332031-5.914063 5.109375-8.246094 8.25zm0 0"/><path d="m442.808594 258.71875 37.03125-185.152344c.425781-2.140625-.039063-4.363281-1.289063-6.152344-1.25-1.789062-3.179687-2.988281-5.335937-3.320312l-416-64c-2.164063-.332031-4.367188.234375-6.101563 1.570312-1.734375 1.335938-2.84375 3.324219-3.074219 5.5l-7.238281 72.800782h-32.800781c-4.417969 0-8 3.582031-8 8v240c0 4.417968 3.582031 8 8 8h239.695312c-4.75 3.976562-7.554687 9.808594-7.695312 16v10.144531c-14.980469-7.105469-31.425781-10.582031-48-10.144531-31.808594 0-64 10.992187-64 32v32c0 21.007812 32.191406 32 64 32 22.167969 0 44.488281-5.351563 56-15.703125 11.511719 10.351562 33.832031 15.703125 56 15.703125s44.488281-5.351563 56-15.703125c11.511719 10.351562 33.832031 15.703125 56 15.703125 31.808594 0 64-10.992188 64-32v-128c0-14.953125-16.328125-24.800782-37.191406-29.246094zm21.191406 115.117188v10.128906c0 5.601562-18.222656 16-48 16s-48-10.398438-48-16v-10.128906c.296875.160156.640625.296874.945312.457031 1.167969.609375 2.351563 1.191406 3.605469 1.746093.503907.214844 1.042969.414063 1.601563.621094 1.183594.488282 2.398437.960938 3.632812 1.394532.460938.167968.941406.3125 1.421875.472656 1.417969.460937 2.855469.902344 4.335938 1.308594l.921875.242187c20.730468 5.183594 42.417968 5.183594 63.152344 0l.917968-.242187c1.480469-.40625 2.921875-.847657 4.335938-1.308594.480468-.160156.960937-.304688 1.425781-.472656 1.246094-.433594 2.445313-.90625 3.632813-1.394532.519531-.207031 1.054687-.40625 1.597656-.621094 1.257812-.554687 2.402344-1.136718 3.609375-1.746093.222656-.160157.566406-.296875.863281-.457031zm-208 10.128906v-10.128906c.296875.160156.640625.296874.945312.457031 1.167969.609375 2.351563 1.191406 3.605469 1.746093.503907.214844 1.042969.414063 1.601563.621094 1.183594.488282 2.398437.960938 3.632812 1.394532.460938.167968.941406.3125 1.421875.472656 1.417969.460937 2.855469.902344 4.335938 1.308594l.921875.242187c20.730468 5.183594 42.417968 5.183594 63.152344 0l.917968-.242187c1.480469-.40625 2.921875-.847657 4.335938-1.308594.480468-.160156.960937-.304688 1.425781-.472656 1.246094-.433594 2.445313-.90625 3.632813-1.394532.519531-.207031 1.054687-.40625 1.597656-.621094 1.257812-.554687 2.402344-1.136718 3.609375-1.746093.304687-.160157.648437-.296875.941406-.457031v10.128906c0 5.601562-18.222656 16-48 16-29.773437 0-48.078125-10.359375-48.078125-16zm208-42.128906v10.128906c0 5.601562-18.222656 16-48 16s-48-10.398438-48-16v-10.128906c.296875.160156.640625.296874.945312.457031 1.167969.609375 2.351563 1.191406 3.605469 1.746093.503907.214844 1.042969.414063 1.601563.621094 1.183594.488282 2.398437.960938 3.632812 1.394532.460938.167968.941406.3125 1.421875.472656 1.417969.460937 2.855469.902344 4.335938 1.308594l.921875.242187c20.730468 5.183594 42.417968 5.183594 63.152344 0l.917968-.242187c1.480469-.40625 2.921875-.847657 4.335938-1.308594.480468-.160156.960937-.304688 1.425781-.472656 1.246094-.433594 2.445313-.90625 3.632813-1.394532.519531-.207031 1.054687-.40625 1.597656-.621094 1.257812-.554687 2.402344-1.136718 3.609375-1.746093.222656-.160157.566406-.296875.863281-.457031zm0-32v10.128906c0 5.601562-18.222656 16-48 16s-48-10.398438-48-16v-10.128906c.296875.160156.640625.296874.945312.457031 1.167969.609375 2.351563 1.191406 3.605469 1.746093.503907.214844 1.042969.414063 1.601563.621094 1.183594.488282 2.398437.960938 3.632812 1.394532.460938.167968.941406.3125 1.421875.472656 1.417969.460937 2.855469.902344 4.335938 1.308594l.921875.242187c20.730468 5.183594 42.417968 5.183594 63.152344 0l.917968-.242187c1.480469-.40625 2.921875-.847657 4.335938-1.308594.480468-.160156.960937-.304688 1.425781-.472656 1.246094-.433594 2.445313-.90625 3.632813-1.394532.519531-.207031 1.054687-.40625 1.597656-.621094 1.257812-.554687 2.402344-1.136718 3.609375-1.746093.222656-.160157.566406-.296875.863281-.457031zm0-21.871094c0 5.601562-18.222656 16-48 16s-48-10.398438-48-16c0-5.597656 18.222656-16 48-16s48 10.402344 48 16zm-400.878906-270.808594 399.390625 61.449219-30.511719 152.558593v-143.199218c0-4.417969-3.582031-8-8-8h-367.160156zm-47.121094 302.808594v-224h400v160c-31.808594 0-64 10.992187-64 32v32zm336 32c0 5.601562-18.222656 16-48 16s-48-10.398438-48-16c0-5.597656 18.222656-16 48-16s48 10.402344 48 16zm-160 16c29.777344 0 48 10.402344 48 16 0 5.601562-18.222656 16-48 16s-48-10.398438-48-16c0-5.597656 18.222656-16 48-16zm0 64c-29.777344 0-48-10.398438-48-16v-10.128906c.296875.160156.640625.296874.945312.457031 1.167969.609375 2.351563 1.191406 3.605469 1.746093.503907.214844 1.042969.414063 1.601563.621094 1.183594.488282 2.398437.960938 3.632812 1.394532.460938.167968.941406.3125 1.421875.472656 1.417969.460937 2.855469.902344 4.335938 1.308594l.921875.242187c20.730468 5.183594 42.417968 5.183594 63.152344 0l.917968-.242187c1.480469-.40625 2.921875-.847657 4.335938-1.308594.480468-.160156.960937-.304688 1.425781-.472656 1.246094-.433594 2.445313-.90625 3.632813-1.394532.519531-.207031 1.054687-.40625 1.597656-.621094 1.257812-.554687 2.402344-1.136718 3.609375-1.746093.304687-.160157.648437-.296875.941406-.457031v10.128906c-.078125 5.640625-18.300781 16-48.078125 16zm112 0c-29.777344 0-48-10.398438-48-16v-10.128906c.296875.160156.640625.296874.945312.457031 1.167969.609375 2.351563 1.191406 3.605469 1.746093.503907.214844 1.042969.414063 1.601563.621094 1.183594.488282 2.398437.960938 3.632812 1.394532.460938.167968.941406.3125 1.421875.472656 1.417969.460937 2.855469.902344 4.335938 1.308594l.921875.242187c20.730468 5.183594 42.417968 5.183594 63.152344 0l.917968-.242187c1.480469-.40625 2.921875-.847657 4.335938-1.308594.480468-.160156.960937-.304688 1.425781-.472656 1.246094-.433594 2.445313-.90625 3.632813-1.394532.519531-.207031 1.054687-.40625 1.597656-.621094 1.257812-.554687 2.402344-1.136718 3.609375-1.746093.304687-.160157.648437-.296875.941406-.457031v10.128906c-.078125 5.640625-18.300781 16-48.078125 16zm160-16c0 5.601562-18.222656 16-48 16s-48-10.398438-48-16v-10.128906c.296875.160156.640625.296874.945312.457031 1.167969.609375 2.351563 1.191406 3.605469 1.746093.503907.214844 1.042969.414063 1.601563.621094 1.183594.488282 2.398437.960938 3.632812 1.394532.460938.167968.941406.3125 1.421875.472656 1.417969.460937 2.855469.902344 4.335938 1.308594l.921875.242187c20.730468 5.183594 42.417968 5.183594 63.152344 0l.917968-.242187c1.480469-.40625 2.921875-.847657 4.335938-1.308594.480468-.160156.960937-.304688 1.425781-.472656 1.246094-.433594 2.445313-.90625 3.632813-1.394532.519531-.207031 1.054687-.40625 1.597656-.621094 1.257812-.554687 2.402344-1.136718 3.609375-1.746093.304687-.160157.648437-.296875.941406-.457031zm0 0"/><path d="m32 159.964844h16v-32h32v-16h-48zm0 0"/><path d="m48 255.964844h-16v48h48v-16h-32zm0 0"/><path d="m384 159.964844h16v-48h-48v16h32zm0 0"/><path d="m216 127.964844c-44.183594 0-80 35.816406-80 80s35.816406 80 80 80 80-35.816406 80-80c-.046875-44.160156-35.835938-79.949219-80-80zm0 144c-35.347656 0-64-28.652344-64-64 0-35.34375 28.652344-64 64-64s64 28.65625 64 64c-.039062 35.332031-28.671875 63.960937-64 64zm0 0"/><path d="m224 151.964844h-16v16h-16v48h32v16h-32v16h16v16h16v-16h16v-48h-32v-16h32v-16h-16zm0 0"/></svg>