<?xml version="1.0" encoding="iso-8859-1"?>
<!-- Generator: Adobe Illustrator 19.0.0, SVG Export Plug-In . SVG Version: 6.00 Build 0)  -->
<svg version="1.1" id="Capa_1" xmlns="http://www.w3.org/2000/svg" xmlns:xlink="http://www.w3.org/1999/xlink" x="0px" y="0px"
	 viewBox="0 0 480 480" style="enable-background:new 0 0 480 480;" xml:space="preserve">
<g>
	<g>
		<path d="M472,184h-8v-40c0-4.418-3.582-8-8-8h-16V32c0-4.418-3.582-8-8-8H272c-4.418,0-8,3.582-8,8v104h-16V80
			c0-4.418-3.582-8-8-8H96c-4.418,0-8,3.582-8,8v24H8c-4.418,0-8,3.582-8,8v304c0.026,22.08,17.92,39.974,40,40h400
			c22.08-0.026,39.974-17.92,40-40V192C480,187.582,476.418,184,472,184z M440,152h8v32h-8V152z M280,40h144v144H280V40z M264,152
			v32H160v-32H264z M104,88h128v48h-72v-24c0-4.418-3.582-8-8-8h-48V88z M16,120h128v64H16V120z M464,416c0,13.255-10.745,24-24,24
			H40c-13.255,0-24-10.745-24-24V200h448V416z"/>
	</g>
</g>
<g>
	<g>
		<path d="M400,56h-96c-4.418,0-8,3.582-8,8s3.582,8,8,8h96c4.418,0,8-3.582,8-8S404.418,56,400,56z"/>
	</g>
</g>
<g>
	<g>
		<path d="M400,88h-96c-4.418,0-8,3.582-8,8s3.582,8,8,8h96c4.418,0,8-3.582,8-8S404.418,88,400,88z"/>
	</g>
</g>
<g>
	<g>
		<path d="M400,120h-96c-4.418,0-8,3.582-8,8s3.582,8,8,8h96c4.418,0,8-3.582,8-8S404.418,120,400,120z"/>
	</g>
</g>
<g>
	<g>
		<path d="M400,152h-96c-4.418,0-8,3.582-8,8s3.582,8,8,8h96c4.418,0,8-3.582,8-8S404.418,152,400,152z"/>
	</g>
</g>
<g>
</g>
<g>
</g>
<g>
</g>
<g>
</g>
<g>
</g>
<g>
</g>
<g>
</g>
<g>
</g>
<g>
</g>
<g>
</g>
<g>
</g>
<g>
</g>
<g>
</g>
<g>
</g>
<g>
</g>
</svg>
