<?xml version="1.0" encoding="iso-8859-1"?>
<!-- Generator: Adobe Illustrator 19.0.0, SVG Export Plug-In . SVG Version: 6.00 Build 0)  -->
<svg version="1.1" id="Capa_1" xmlns="http://www.w3.org/2000/svg" xmlns:xlink="http://www.w3.org/1999/xlink" x="0px" y="0px"
	 viewBox="0 0 480.49 480.49" style="enable-background:new 0 0 480.49 480.49;" xml:space="preserve">
<g>
	<g>
		<path d="M477.139,414.602c-7.169-18.436-24.936-30.566-44.717-30.531c-0.528,0-1.04,0.064-1.6,0.08l-13.288-59.784
			c9.955-3.004,19.298-7.752,27.592-14.024c0.368-0.224,0.718-0.475,1.048-0.752c38.441-29.659,45.561-84.864,15.902-123.305
			c-29.659-38.441-84.864-45.561-123.305-15.902c-0.887,0.684-1.761,1.385-2.621,2.103l-28.144-28.144
			c31.116-37.334,26.075-92.824-11.26-123.94s-92.824-26.075-123.94,11.26c-27.2,32.636-27.2,80.045,0,112.681l-28.144,28.144
			c-37.12-31.296-92.582-26.574-123.878,10.546c-31.296,37.12-26.574,92.582,10.546,123.878c1.091,0.92,2.205,1.814,3.34,2.68
			c0.315,0.277,0.652,0.529,1.008,0.752c8.294,6.272,17.637,11.02,27.592,14.024l-13.248,59.784c-0.52,0-1.032-0.08-1.6-0.08
			c-26.598-0.088-48.231,21.402-48.32,48c-0.088,26.598,21.402,48.231,48,48.32c26.598,0.088,48.231-21.402,48.32-48
			c0.066-19.939-12.161-37.857-30.752-45.064l13.288-59.784c10.113,1.133,20.348,0.439,30.216-2.048l26.264,65.664
			c-22.507,13.84-29.532,43.304-15.693,65.811s43.304,29.532,65.811,15.693s29.532-43.304,15.693-65.811
			c-10.654-17.327-31.1-26.022-50.971-21.677l-25.936-64.848c5.955-2.691,11.59-6.04,16.8-9.984
			c0.354-0.225,0.691-0.477,1.008-0.752c38.403-29.527,45.599-84.595,16.073-122.998c-0.728-0.947-1.475-1.878-2.241-2.794
			l28.144-28.144c0.8,0.68,1.68,1.288,2.52,1.936c0.315,0.277,0.652,0.529,1.008,0.752c31.191,23.636,74.297,23.636,105.488,0
			c0.354-0.225,0.691-0.477,1.008-0.752c0.8-0.648,1.704-1.256,2.52-1.936l28.144,28.144
			c-31.064,37.171-26.113,92.486,11.058,123.55c0.917,0.766,1.85,1.514,2.798,2.242c0.315,0.277,0.652,0.529,1.008,0.752
			c5.214,3.938,10.848,7.287,16.8,9.984l-25.936,64.848c-26.007-5.723-51.729,10.721-57.451,36.728
			c-5.723,26.007,10.721,51.729,36.728,57.451s51.729-10.721,57.451-36.728c4.416-20.067-4.371-40.728-21.888-51.467l26.264-65.664
			c9.868,2.487,20.103,3.181,30.216,2.048l13.288,59.784c-24.65,9.586-36.861,37.339-27.275,61.989
			c9.586,24.649,37.339,36.861,61.989,27.275C474.513,467.005,486.725,439.251,477.139,414.602z M160.422,400.071
			c17.673,0,32,14.327,32,32c0,17.673-14.327,32-32,32s-32-14.327-32-32C128.422,414.397,142.749,400.071,160.422,400.071z
			 M80.422,432.071c0,17.673-14.327,32-32,32s-32-14.327-32-32c0-17.673,14.327-32,32-32S80.422,414.397,80.422,432.071z
			 M88.422,312.071c-14.102,0.008-27.893-4.15-39.64-11.952c1.404-16.279,15.31-28.607,31.64-28.048h16
			c16.33-0.559,30.236,11.769,31.64,28.048C116.315,307.921,102.525,312.079,88.422,312.071z M64.422,224.071
			c0-13.255,10.745-24,24-24s24,10.745,24,24s-10.745,24-24,24S64.422,237.325,64.422,224.071z M160.422,240.071
			c-0.007,17.77-6.619,34.904-18.552,48.072c-4.863-14.935-17-26.363-32.2-30.32c18.717-11.735,24.377-36.421,12.642-55.138
			c-11.735-18.717-36.421-24.377-55.138-12.642c-18.717,11.735-24.377,36.421-12.642,55.138c3.206,5.114,7.528,9.436,12.642,12.642
			c-15.201,3.955-27.339,15.384-32.2,30.32C8.4,258.598,10.808,213.104,40.353,186.529s75.039-24.166,101.613,5.379
			C153.859,205.13,160.434,222.287,160.422,240.071z M240.422,160.071c-14.102,0.008-27.893-4.15-39.64-11.952
			c1.404-16.279,15.31-28.607,31.64-28.048h16c16.33-0.559,30.236,11.769,31.64,28.048
			C268.315,155.921,254.525,160.079,240.422,160.071z M216.422,72.071c0-13.255,10.745-24,24-24s24,10.745,24,24s-10.745,24-24,24
			S216.422,85.325,216.422,72.071z M293.87,136.143c-4.863-14.935-17-26.363-32.2-30.32c18.717-11.735,24.377-36.421,12.642-55.138
			c-11.735-18.717-36.421-24.377-55.138-12.642c-18.717,11.735-24.377,36.421-12.642,55.138c3.206,5.114,7.528,9.436,12.642,12.642
			c-15.201,3.955-27.339,15.384-32.2,30.32c-26.643-29.519-24.313-75.047,5.206-101.69c29.518-26.643,75.047-24.313,101.69,5.206
			C318.606,67.063,318.606,108.737,293.87,136.143z M352.422,432.071c0,17.673-14.327,32-32,32c-17.673,0-32-14.327-32-32
			c0-17.673,14.327-32,32-32C338.096,400.071,352.422,414.397,352.422,432.071z M338.974,288.143
			c-26.643-29.519-24.313-75.047,5.206-101.69c29.519-26.643,75.047-24.313,101.69,5.206c24.736,27.405,24.736,69.079,0,96.484
			c-4.863-14.935-17-26.363-32.2-30.32c18.717-11.735,24.377-36.421,12.642-55.138c-11.735-18.717-36.421-24.377-55.138-12.642
			s-24.377,36.421-12.642,55.138c3.206,5.114,7.528,9.436,12.642,12.642C355.973,261.777,343.835,273.206,338.974,288.143z
			 M392.422,248.071c-13.255,0-24-10.745-24-24s10.745-24,24-24s24,10.745,24,24S405.677,248.071,392.422,248.071z M392.422,312.071
			c-14.102,0.008-27.893-4.15-39.64-11.952c1.404-16.279,15.31-28.607,31.64-28.048h16c16.33-0.559,30.236,11.769,31.64,28.048
			C420.315,307.921,406.525,312.079,392.422,312.071z M432.422,464.071c-17.673,0-32-14.327-32-32c0-17.673,14.327-32,32-32
			c17.673,0,32,14.327,32,32C464.422,449.744,450.096,464.071,432.422,464.071z"/>
	</g>
</g>
<g>
	<g>
		<path d="M240.422,192.071c-4.418,0-8,3.582-8,8v32c0,4.418,3.582,8,8,8s8-3.582,8-8v-32
			C248.422,195.652,244.841,192.071,240.422,192.071z"/>
	</g>
</g>
<g>
	<g>
		<path d="M240.422,256.071c-4.418,0-8,3.582-8,8v32c0,4.418,3.582,8,8,8s8-3.582,8-8v-32
			C248.422,259.652,244.841,256.071,240.422,256.071z"/>
	</g>
</g>
<g>
	<g>
		<path d="M270.078,378.415l-21.656-21.656v-28.688c0-4.418-3.582-8-8-8s-8,3.582-8,8v28.688l-21.656,21.656
			c-3.178,3.069-3.266,8.134-0.196,11.312c3.069,3.178,8.134,3.266,11.312,0.196c0.067-0.064,0.132-0.13,0.196-0.196l18.344-18.344
			l18.344,18.344c3.178,3.07,8.242,2.982,11.312-0.196C273.073,386.43,273.073,381.515,270.078,378.415z"/>
	</g>
</g>
<g>
	<g>
		<circle cx="48.422" cy="432.071" r="16"/>
	</g>
</g>
<g>
	<g>
		<circle cx="160.422" cy="432.071" r="16"/>
	</g>
</g>
<g>
	<g>
		<circle cx="320.422" cy="432.071" r="16"/>
	</g>
</g>
<g>
	<g>
		<circle cx="432.422" cy="432.071" r="16"/>
	</g>
</g>
<g>
</g>
<g>
</g>
<g>
</g>
<g>
</g>
<g>
</g>
<g>
</g>
<g>
</g>
<g>
</g>
<g>
</g>
<g>
</g>
<g>
</g>
<g>
</g>
<g>
</g>
<g>
</g>
<g>
</g>
</svg>
