<?xml version="1.0"?>
<svg xmlns="http://www.w3.org/2000/svg" viewBox="0 0 64 64" width="512" height="512"><g id="outline"><path d="M20,34a5,5,0,1,0-5,5A5.006,5.006,0,0,0,20,34Zm-5,3a3,3,0,1,1,3-3A3,3,0,0,1,15,37Z"/><path d="M28,37A13,13,0,1,0,15,50,13.015,13.015,0,0,0,28,37ZM9,45v1.208a11,11,0,1,1,12,0V45A6,6,0,0,0,9,45Zm2,0a4,4,0,0,1,8,0v2.236a10.853,10.853,0,0,1-8,0Z"/><rect x="14" y="43" width="2" height="2"/><path d="M54,24a5,5,0,1,0-5,5A5.006,5.006,0,0,0,54,24Zm-5,3a3,3,0,1,1,3-3A3,3,0,0,1,49,27Z"/><path d="M49,14A13,13,0,1,0,62,27,13.015,13.015,0,0,0,49,14Zm4,23.236a10.853,10.853,0,0,1-8,0V35a4,4,0,0,1,8,0Zm2-1.028V35a6,6,0,0,0-12,0v1.208a11,11,0,1,1,12,0Z"/><rect x="48" y="33" width="2" height="2"/><path d="M49,12a1,1,0,0,0,1-1V7a1,1,0,0,0-1-1H13a1,1,0,0,0-1,1v7H9a1,1,0,0,0-.707,1.707l6,6a1,1,0,0,0,1.414,0l6-6A1,1,0,0,0,21,14H18V12ZM17,16h1.586L15,19.586,11.414,16H13a1,1,0,0,0,1-1V8H48v2H17a1,1,0,0,0-1,1v4A1,1,0,0,0,17,16Z"/><path d="M49.707,42.293a1,1,0,0,0-1.414,0l-6,6A1,1,0,0,0,43,50h3v2H15a1,1,0,0,0-1,1v4a1,1,0,0,0,1,1H51a1,1,0,0,0,1-1V50h3a1,1,0,0,0,.707-1.707ZM51,48a1,1,0,0,0-1,1v7H16V54H47a1,1,0,0,0,1-1V49a1,1,0,0,0-1-1H45.414L49,44.414,52.586,48Z"/></g></svg>
