<svg height="512" viewBox="0 0 64 64" width="512" xmlns="http://www.w3.org/2000/svg"><path d="m61 56h-1v-3a1 1 0 0 0 -1-1h-4v-16h1a1 1 0 0 0 1-1v-8a1 1 0 0 0 -.48-.854l-23-14a.994.994 0 0 0 -.52-.146v-2h10v-8h-12v10a.994.994 0 0 0 -.52.146l-23 14a1 1 0 0 0 -.48.854v8a1 1 0 0 0 1 1h1v16h-4a1 1 0 0 0 -1 1v3h-1a1 1 0 0 0 -1 1v4a1 1 0 0 0 1 1h58a1 1 0 0 0 1-1v-4a1 1 0 0 0 -1-1zm-28-52h8v4h-8zm-24 24h11v-2h-8.434l19.714-12h1.44l19.714 12h-5.434v2h8v2h-46zm0 4h46v2h-46zm44 4v16h-2v-16zm-4 0v16h-4v-16zm-6 0v16h-2v-16zm-12 13v3h-2v-3zm-2-2v-3h2v3zm10 7v2h-14v-2zm-4-5v3h-2v-3zm-2-2v-3h2v3zm4 5v-9a1 1 0 0 0 -1-1h-8a1 1 0 0 0 -1 1v9h-2v-16h14v16zm-14-16v16h-2v-16zm-4 0v16h-4v-16zm-6 0v16h-2v-16zm7 24h-16v-2h16zm-14-4v-2h17v2zm36 4h-20v-2h20zm-1-4v-2h17v2zm19 4h-16v-2h16z"/><path d="m32 16a6 6 0 1 0 6 6 6.006 6.006 0 0 0 -6-6zm0 10a4 4 0 1 1 4-4 4 4 0 0 1 -4 4z"/><path d="m28 38h2v2h-2z"/><path d="m34 38h2v2h-2z"/><path d="m30.707 19.293-1.414 1.414 2 2a1 1 0 0 0 .707.293h2v-2h-1.586z"/><path d="m22 26h2v2h-2z"/><path d="m39 26h6v2h-6z"/></svg>